# xmcd
#
# Track frame offsets: 
#        150
#        24093
#        49740
#        73721
#
# Disc length: 1322 seconds
#
# Revision: 2
# Processed by: cddbd v1.5.2PL0 Copyright (c) Steve Scherf et al.
# Submitted via: ExactAudioCopy v1.0b3
#
DISCID=2a052804
DTITLE=JEJUNG and YUCHUN - COLORS
DYEAR=1900
DGENRE=Pop
TTITLE0=COLORS ～Melody and Harmony～
TTITLE1=Shelter
TTITLE2=COLORS ～Melody and Harmony～ (Less Vocal)
TTITLE3=Shelter (Less Vocal)
EXTD=
EXTT0=
EXTT1=
EXTT2=
EXTT3=
PLAYORDER=
